<?xml version="1.0" encoding="UTF-8" standalone="no"?>
<svg
   xmlns:dc="http://purl.org/dc/elements/1.1/"
   xmlns:cc="http://creativecommons.org/ns#"
   xmlns:rdf="http://www.w3.org/1999/02/22-rdf-syntax-ns#"
   xmlns:svg="http://www.w3.org/2000/svg"
   xmlns="http://www.w3.org/2000/svg"
   id="svg8"
   version="1.1"
   viewBox="0 0 5.2916666 5.2916665"
   height="20"
   width="20">
  <defs
     id="defs2" />
  <metadata
     id="metadata5">
    <rdf:RDF>
      <cc:Work
         rdf:about="">
        <dc:format>image/svg+xml</dc:format>
        <dc:type
           rdf:resource="http://purl.org/dc/dcmitype/StillImage" />
        <dc:title></dc:title>
      </cc:Work>
    </rdf:RDF>
  </metadata>
  <g
     id="layer2"
     transform="matrix(0.02911501,0,0,0.02911501,-0.26577272,-0.26566773)"
     style="stroke-width:34.34653473" />
  <path
     id="path822"
     transform="scale(0.26458333)"
     d="M 10,0 C 4.4773704,-3.6699216e-8 -5.754894e-8,4.4773704 0,10 2.0873753e-7,15.522629 4.4773707,20 10,20 15.522629,20 20,15.522629 20,10 20,4.4773707 15.522629,2.0874331e-7 10,0 Z m 0,2.5 c 4.141916,2e-7 7.5,3.3580837 7.5,7.5 0,4.141916 -3.358084,7.5 -7.5,7.5 C 5.8580837,17.5 2.5000002,14.141916 2.5,10 2.5,5.8580833 5.8580833,2.5 10,2.5 Z"
     style="opacity:1;fill:#ffffff;fill-opacity:1;stroke:none;stroke-width:1.00157475;stroke-linecap:round;stroke-linejoin:round;stroke-miterlimit:4;stroke-dasharray:none;stroke-opacity:1" />
</svg>
